<svg id="Layer_1" data-name="Layer 1" xmlns="http://www.w3.org/2000/svg" viewBox="0 0 1008 792"><defs><style>.cls-1{fill:#3953a4;}.cls-2{fill:#fff;}</style></defs><title>Artboard 1</title><rect class="cls-1" width="1008" height="792"/><path class="cls-2" d="M200.63,694.54l-29.38-61.63v40.87a31.67,31.67,0,0,0,.75,8.08,8,8,0,0,0,3.53,4.4,12.11,12.11,0,0,0,6.74,1.8v6.48H153.81v-6.48a10.85,10.85,0,0,0,6.47-1.95,7.87,7.87,0,0,0,3.36-4.49,38.92,38.92,0,0,0,.61-8.13V631.92q0-6-2.07-8t-8.37-2v-6.47h31.66l24.37,51.94,24.61-51.94h31.77V622h-1.57c-4,0-6.54.73-7.73,2.18s-1.77,4-1.77,7.5v46.76q0,5.42,1.83,7.55c1.23,1.42,3.78,2.12,7.67,2.12h1.81v6.48h-43v-6.48H225c3.93,0,6.48-.72,7.67-2.18s1.78-4,1.78-7.49V631.92l-29.27,62.62Z"/><path class="cls-2" d="M298.79,654.77A40.61,40.61,0,0,1,304.74,634a36.79,36.79,0,0,1,16.12-15,49.74,49.74,0,0,1,21.78-4.87q20.87,0,32.73,12t11.87,29.53a39.2,39.2,0,0,1-11.84,28.57q-11.83,11.94-32.18,11.95-13.94,0-24.63-5.89t-15.25-15.83A47.07,47.07,0,0,1,298.79,654.77Zm24.37-.64q0,18.25,4.9,26.33t14.58,8.07q10.08,0,15.21-7.37T363,655.3q0-16.9-4.81-25.25t-15.3-8.34q-9.92,0-14.81,7.76T323.16,654.13Z"/><path class="cls-2" d="M438.17,638V674.3q0,8.75,3.18,11.26a12.74,12.74,0,0,0,8.13,2.5v6.48H419.81v-6.48a11.8,11.8,0,0,0,6.59-1.83A8.15,8.15,0,0,0,430,682a27.47,27.47,0,0,0,.76-7.61V634q0-12.07-11.31-12.07v-6.47h26.7l43.32,48.39v-29q0-12.95-10.9-12.94v-6.47h28.39V622a10.21,10.21,0,0,0-5.56,1.63,8.28,8.28,0,0,0-3.53,4.17,22.48,22.48,0,0,0-.93,7.37v60.7h-7.47Z"/><path class="cls-2" d="M567.88,659.67v18.72q0,5.42,1.86,7.55c1.25,1.42,3.79,2.12,7.64,2.12h1.4v6.48H536.16v-6.48h1.57c4,0,6.54-.72,7.73-2.18s1.78-4,1.78-7.49V631.63c0-3.62-.62-6.13-1.87-7.55s-3.79-2.13-7.64-2.13h-1.57v-6.47l31.72-.06,7.11-.06a119.81,119.81,0,0,1,15.42.7,27.51,27.51,0,0,1,9.59,3.35,19.65,19.65,0,0,1,7.44,7.26,19.26,19.26,0,0,1,2.71,9.91q0,14.11-16,19.3,4.26,2.68,13.24,16.79,7,10.91,10,13.15a10.57,10.57,0,0,0,6.53,2.24v6.48H599.19q-3.39-4-12.54-20.41a102.49,102.49,0,0,0-6.47-10.67,8.75,8.75,0,0,0-3.82-3.06Q574.41,659.73,567.88,659.67Zm0-7.11q9.86.12,13.29-1.2a10.49,10.49,0,0,0,5.42-4.72q2-3.4,2-9.24,0-8.34-3.93-11.55t-13.56-3.2c-.81,0-1.88,0-3.2.06Z"/><path class="cls-2" d="M649.48,654.77A40.61,40.61,0,0,1,655.43,634a36.74,36.74,0,0,1,16.12-15,49.72,49.72,0,0,1,21.77-4.87q20.88,0,32.74,12t11.87,29.53a39.2,39.2,0,0,1-11.84,28.57q-11.83,11.94-32.18,11.95a50.25,50.25,0,0,1-24.64-5.89q-10.69-5.89-15.24-15.83A47.07,47.07,0,0,1,649.48,654.77Zm24.37-.64q0,18.25,4.9,26.33t14.57,8.07q10.09,0,15.22-7.37t5.13-25.86q0-16.9-4.81-25.25t-15.3-8.34q-9.91,0-14.81,7.76T673.85,654.13Z"/><path class="cls-2" d="M801.63,656.75v19.54q0,5.6.64,7.31c.43,1.15,1.57,2.1,3.44,2.86s4.7,1.14,8.51,1.14q7.75,0,11.4-1.93a17.31,17.31,0,0,0,6.53-6.76,36,36,0,0,0,4.17-10.32h6.53l-.52,25.95H770v-6.48h1.46c3.92,0,6.48-.72,7.66-2.18s1.78-4,1.78-7.49V631.51c0-3.62-.61-6.13-1.84-7.55s-3.76-2.13-7.6-2.13H770v-6.35h67.34l1.17,20.46H832a34.47,34.47,0,0,0-3.91-8.54,10.65,10.65,0,0,0-4.34-4.08c-1.46-.6-3.92-.91-7.38-.91H801.63V649.7H809c3.49,0,5.82-.66,7-2s1.8-3.93,2-7.81h6.58v26.81H817.9c0-.5.06-.87.06-1.1a13,13,0,0,0-1.43-6.12q-1.44-2.75-7.32-2.75Z"/><polygon class="cls-2" points="504 270.83 515.84 294.81 542.3 298.66 523.15 317.32 527.67 343.68 504 331.24 480.33 343.68 484.85 317.32 465.7 298.66 492.17 294.81 504 270.83"/><polygon class="cls-2" points="615.31 270.83 627.14 294.81 653.61 298.66 634.46 317.32 638.98 343.68 615.31 331.24 591.64 343.68 596.16 317.32 577.01 298.66 603.47 294.81 615.31 270.83"/><polygon class="cls-2" points="559.65 367.23 571.49 391.21 597.95 395.05 578.8 413.72 583.32 440.07 559.65 427.63 535.98 440.07 540.5 413.72 521.36 395.05 547.82 391.21 559.65 367.23"/><polygon class="cls-2" points="448.35 367.23 460.18 391.21 486.64 395.05 467.5 413.72 472.02 440.07 448.35 427.63 424.68 440.07 429.2 413.72 410.05 395.05 436.51 391.21 448.35 367.23"/><polygon class="cls-2" points="392.69 270.83 404.53 294.81 430.99 298.66 411.84 317.32 416.36 343.68 392.69 331.24 369.02 343.68 373.54 317.32 354.39 298.66 380.86 294.81 392.69 270.83"/><polygon class="cls-2" points="448.35 174.44 460.18 198.42 486.64 202.26 467.5 220.93 472.02 247.29 448.35 234.84 424.68 247.29 429.2 220.93 410.05 202.26 436.51 198.42 448.35 174.44"/><polygon class="cls-2" points="559.65 174.44 571.49 198.42 597.95 202.26 578.8 220.93 583.32 247.29 559.65 234.84 535.98 247.29 540.5 220.93 521.36 202.26 547.82 198.42 559.65 174.44"/><polygon class="cls-2" points="670.96 174.44 682.79 198.42 709.26 202.26 690.11 220.93 694.63 247.29 670.96 234.84 647.29 247.29 651.81 220.93 632.66 202.26 659.13 198.42 670.96 174.44"/><polygon class="cls-2" points="337.04 174.44 348.88 198.42 375.34 202.26 356.19 220.93 360.71 247.29 337.04 234.84 313.37 247.29 317.89 220.93 298.74 202.26 325.2 198.42 337.04 174.44"/><polygon class="cls-2" points="504 78.04 515.84 102.02 542.3 105.87 523.15 124.53 527.67 150.89 504 138.45 480.33 150.89 484.85 124.53 465.7 105.87 492.17 102.02 504 78.04"/><polygon class="cls-2" points="504 463.62 515.84 487.6 542.3 491.45 523.15 510.11 527.67 536.47 504 524.03 480.33 536.47 484.85 510.11 465.7 491.45 492.17 487.6 504 463.62"/><polygon class="cls-2" points="337.04 367.23 348.88 391.21 375.34 395.05 356.19 413.72 360.71 440.07 337.04 427.63 313.37 440.07 317.89 413.72 298.74 395.05 325.2 391.21 337.04 367.23"/><polygon class="cls-2" points="670.96 367.23 682.79 391.21 709.26 395.05 690.11 413.72 694.63 440.07 670.96 427.63 647.29 440.07 651.81 413.72 632.66 395.05 659.13 391.21 670.96 367.23"/></svg>